<svg width="60" height="59" viewBox="0 0 60 59" fill="none" xmlns="http://www.w3.org/2000/svg">
<path d="M50.6146 45.0557C50.6146 44.3734 50.5132 43.7648 50.3103 43.23C50.1074 42.6767 49.7386 42.1696 49.2038 41.7086C48.669 41.2475 47.9129 40.7865 46.9355 40.3254C45.9581 39.846 44.6764 39.3572 43.0904 38.8593C41.2831 38.2692 39.5589 37.6053 37.9176 36.8676C36.2947 36.1115 34.847 35.2356 33.5746 34.2397C32.3021 33.2439 31.297 32.082 30.5594 30.7542C29.8401 29.4264 29.4805 27.8774 29.4805 26.107C29.4805 24.3919 29.8586 22.8428 30.6147 21.4597C31.3708 20.0766 32.4312 18.8963 33.7959 17.9189C35.1605 16.923 36.765 16.1669 38.6091 15.6506C40.4533 15.1158 42.4819 14.8484 44.6948 14.8484C47.6455 14.8484 50.2365 15.374 52.468 16.4251C54.7178 17.4579 56.4698 18.9147 57.7238 20.7958C58.9779 22.6584 59.6049 24.8253 59.6049 27.2964H50.6423C50.6423 26.2084 50.4117 25.2494 49.9507 24.4196C49.5081 23.5712 48.8258 22.9073 47.9037 22.4279C47 21.9484 45.8659 21.7086 44.5012 21.7086C43.1734 21.7086 42.0577 21.9115 41.1541 22.3172C40.2689 22.7045 39.5957 23.2393 39.1347 23.9216C38.6921 24.604 38.4708 25.3509 38.4708 26.1623C38.4708 26.8077 38.6368 27.3979 38.9687 27.9327C39.3191 28.449 39.817 28.9377 40.4625 29.3988C41.1264 29.8414 41.9378 30.2655 42.8968 30.6713C43.8558 31.077 44.953 31.4642 46.1886 31.8331C48.3463 32.5154 50.255 33.2715 51.9147 34.1014C53.5929 34.9313 55.0037 35.8718 56.1471 36.923C57.2904 37.9741 58.148 39.1636 58.7197 40.4914C59.3098 41.8192 59.6049 43.3222 59.6049 45.0004C59.6049 46.7892 59.2545 48.3752 58.5537 49.7583C57.8714 51.1414 56.8755 52.3217 55.5662 53.2991C54.2752 54.2581 52.7262 54.9865 50.9189 55.4844C49.1116 55.9823 47.0922 56.2313 44.8608 56.2313C42.8322 56.2313 40.8313 55.9731 38.8581 55.4568C36.8848 54.922 35.096 54.1105 33.4916 53.0225C31.9056 51.9344 30.6331 50.5513 29.6742 48.8731C28.7336 47.1765 28.2634 45.1664 28.2634 42.8427H37.2813C37.2813 44.0599 37.4565 45.0926 37.8069 45.9409C38.1573 46.7708 38.6552 47.4439 39.3007 47.9603C39.9646 48.4766 40.7668 48.8454 41.7073 49.0667C42.6478 49.288 43.699 49.3987 44.8608 49.3987C46.2071 49.3987 47.2951 49.2143 48.125 48.8454C48.9733 48.4582 49.6003 47.9326 50.006 47.2687C50.4117 46.6048 50.6146 45.8671 50.6146 45.0557Z" fill="#61B0B5"/>
<path d="M14.4786 0L25.4283 24.8962L36.4548 0H49.9787L31.806 35.7306V55.9395H19.089V35.7306L0.87793 0H14.4786Z" fill="#FFC700"/>
<path d="M21.1672 9.04877L22.722 8.40143L44.1637 58.3527L42.6089 59L21.1672 9.04877Z" fill="white"/>
<path d="M22.6332 6.54373L23.0672 6.36302L44.5089 56.3143L44.0749 56.495L22.6332 6.54373Z" fill="white"/>
</svg>
