<svg width="239" height="309" viewBox="0 0 239 309" fill="none" xmlns="http://www.w3.org/2000/svg">
<path d="M158.904 197.419C158.904 195.251 158.582 193.318 157.938 191.619C157.293 189.861 156.121 188.249 154.422 186.785C152.723 185.32 150.32 183.855 147.215 182.39C144.109 180.867 140.037 179.314 134.998 177.732C129.256 175.857 123.777 173.747 118.562 171.404C113.406 169.001 108.807 166.218 104.764 163.054C100.721 159.89 97.5273 156.199 95.1836 151.98C92.8984 147.761 91.7559 142.839 91.7559 137.214C91.7559 131.765 92.957 126.843 95.3594 122.449C97.7617 118.054 101.131 114.304 105.467 111.199C109.803 108.035 114.9 105.632 120.76 103.992C126.619 102.292 133.064 101.443 140.096 101.443C149.471 101.443 157.703 103.113 164.793 106.453C171.941 109.734 177.508 114.363 181.492 120.339C185.477 126.257 187.469 133.142 187.469 140.994H158.992C158.992 137.537 158.26 134.49 156.795 131.853C155.389 129.158 153.221 127.048 150.291 125.525C147.42 124.001 143.816 123.24 139.48 123.24C135.262 123.24 131.717 123.884 128.846 125.173C126.033 126.404 123.895 128.103 122.43 130.271C121.023 132.439 120.32 134.812 120.32 137.39C120.32 139.441 120.848 141.316 121.902 143.015C123.016 144.656 124.598 146.208 126.648 147.673C128.758 149.079 131.336 150.427 134.383 151.716C137.43 153.005 140.916 154.236 144.842 155.408C151.697 157.576 157.762 159.978 163.035 162.615C168.367 165.251 172.85 168.24 176.482 171.579C180.115 174.919 182.84 178.699 184.656 182.917C186.531 187.136 187.469 191.912 187.469 197.244C187.469 202.927 186.355 207.966 184.129 212.361C181.961 216.755 178.797 220.505 174.637 223.611C170.535 226.658 165.613 228.972 159.871 230.554C154.129 232.136 147.713 232.927 140.623 232.927C134.178 232.927 127.82 232.107 121.551 230.466C115.281 228.767 109.598 226.189 104.5 222.732C99.4609 219.275 95.418 214.88 92.3711 209.548C89.3828 204.158 87.8887 197.771 87.8887 190.388H116.541C116.541 194.255 117.098 197.537 118.211 200.232C119.324 202.869 120.906 205.007 122.957 206.648C125.066 208.288 127.615 209.46 130.604 210.163C133.592 210.867 136.932 211.218 140.623 211.218C144.9 211.218 148.357 210.632 150.994 209.46C153.689 208.23 155.682 206.56 156.971 204.451C158.26 202.341 158.904 199.997 158.904 197.419Z" fill="#61B0B5"/>
<path d="M44.0908 54.2656L78.8809 133.367L113.915 54.2656H156.884L99.1445 167.791V232H58.7393V167.791L0.87793 54.2656H44.0908Z" fill="#FFC700"/>
<rect width="5.35111" height="172.712" transform="matrix(0.923183 -0.38436 0.394448 0.918918 65.3422 83.0159)" fill="white"/>
<rect width="1.4938" height="172.712" transform="matrix(0.923183 -0.38436 0.394448 0.918918 70 75.0567)" fill="white"/>
</svg>
